<svg width="16" height="17" viewBox="0 0 16 17" fill="none" xmlns="http://www.w3.org/2000/svg">
<path d="M13.8941 3.57357C13.5536 3.23291 13.1493 2.96267 12.7043 2.7783C12.2593 2.59392 11.7824 2.49902 11.3007 2.49902C10.8191 2.49902 10.3421 2.59392 9.89716 2.7783C9.45219 2.96267 9.0479 3.23291 8.7074 3.57357L8.00073 4.28024L7.29406 3.57357C6.60627 2.88578 5.67342 2.49938 4.70073 2.49938C3.72804 2.49938 2.79519 2.88578 2.1074 3.57357C1.4196 4.26137 1.0332 5.19422 1.0332 6.16691C1.0332 7.1396 1.4196 8.07245 2.1074 8.76024L2.81406 9.46691L8.00073 14.6536L13.1874 9.46691L13.8941 8.76024C14.2347 8.41974 14.505 8.01545 14.6893 7.57048C14.8737 7.1255 14.9686 6.64857 14.9686 6.16691C14.9686 5.68525 14.8737 5.20831 14.6893 4.76334C14.505 4.31836 14.2347 3.91408 13.8941 3.57357V3.57357Z" fill="#C4934E"/>
</svg>
